<svg width="128" height="128" viewBox="0 0 128 128" xmlns="http://www.w3.org/2000/svg">
  <defs>
    <linearGradient id="grad1" x1="0%" y1="0%" x2="100%" y2="100%">
      <stop offset="0%" style="stop-color:#667eea;stop-opacity:1" />
      <stop offset="100%" style="stop-color:#764ba2;stop-opacity:1" />
    </linearGradient>
    <filter id="shadow" x="-20%" y="-20%" width="140%" height="140%">
      <feDropShadow dx="0" dy="4" stdDeviation="6" flood-color="rgba(0,0,0,0.3)"/>
    </filter>
    <filter id="glow" x="-50%" y="-50%" width="200%" height="200%">
      <feGaussianBlur stdDeviation="3" result="coloredBlur"/>
      <feMerge> 
        <feMergeNode in="coloredBlur"/>
        <feMergeNode in="SourceGraphic"/>
      </feMerge>
    </filter>
  </defs>
  
  <!-- Background circle with shadow -->
  <circle cx="64" cy="64" r="60" fill="url(#grad1)" stroke="#fff" stroke-width="4" filter="url(#shadow)"/>
  
  <!-- Magnifying glass -->
  <path d="M56 28C40.54 28 28 40.54 28 56S40.54 84 56 84c15.46 0 28-12.54 28-28S71.46 28 56 28z" fill="none" stroke="#fff" stroke-width="6" stroke-linecap="round" filter="url(#glow)"/>
  <path d="M84 84L96 96" stroke="#fff" stroke-width="6" stroke-linecap="round" filter="url(#glow)"/>
  
  <!-- Highlight dots with glow -->
  <circle cx="44" cy="48" r="6.4" fill="#FFD700" filter="url(#shadow)"/>
  <circle cx="52" cy="64" r="6.4" fill="#FF6B6B" filter="url(#shadow)"/>
  <circle cx="68" cy="52" r="6.4" fill="#4ECDC4" filter="url(#shadow)"/>
  
  <!-- Additional highlight elements -->
  <rect x="48" y="72" width="16" height="4" rx="2" fill="#96CEB4" filter="url(#shadow)"/>
  <rect x="56" y="76" width="4" height="8" rx="2" fill="#DDA0DD" filter="url(#shadow)"/>
  
  <!-- Decorative elements -->
  <circle cx="80" cy="40" r="3" fill="#FFEAA7" opacity="0.8"/>
  <circle cx="88" cy="56" r="2" fill="#45B7D1" opacity="0.8"/>
  <circle cx="40" cy="80" r="2.5" fill="#FF9800" opacity="0.8"/>
  
  <!-- Text highlight representation -->
  <rect x="36" y="88" width="24" height="3" rx="1.5" fill="#FFD700" opacity="0.9"/>
  <rect x="62" y="88" width="20" height="3" rx="1.5" fill="#4ECDC4" opacity="0.9"/>
  <rect x="84" y="88" width="16" height="3" rx="1.5" fill="#FF6B6B" opacity="0.9"/>
</svg>
